<?xml version="1.0" standalone="no"?>
<!DOCTYPE svg PUBLIC "-//W3C//DTD SVG 20010904//EN"
 "http://www.w3.org/TR/2001/REC-SVG-20010904/DTD/svg10.dtd">
<svg version="1.0" xmlns="http://www.w3.org/2000/svg"
 width="720.000000pt" height="328.000000pt" viewBox="0 0 720.000000 328.000000"
 preserveAspectRatio="xMidYMid meet">

<g transform="translate(0.000000,328.000000) scale(0.100000,-0.100000)"
fill="#FFFFFF" stroke="none">
<path d="M2124 1931 c-49 -22 -80 -62 -93 -122 -34 -147 15 -271 119 -299 50
-14 131 -9 173 11 l28 12 -3 111 -3 111 -72 3 -73 3 0 -40 c0 -36 3 -40 28
-43 24 -3 27 -7 30 -45 l3 -43 -46 0 c-35 0 -52 6 -69 23 -47 47 -43 181 7
228 18 17 33 20 92 18 73 -2 79 2 84 58 3 33 -142 43 -205 14z"/>
<path d="M3834 1931 c-2 -2 -4 -98 -4 -213 0 -201 1 -208 20 -208 18 0 20 7
20 85 l0 85 74 0 c81 0 129 22 153 70 26 51 4 137 -41 163 -20 11 -213 27
-222 18z m199 -51 c33 -26 44 -78 25 -117 -16 -34 -73 -55 -138 -51 l-45 3 -3
93 -3 92 69 0 c55 0 75 -4 95 -20z"/>
<path d="M2762 1723 l3 -208 45 0 45 0 3 88 3 87 59 0 60 0 0 -90 0 -90 45 0
45 0 0 210 0 210 -45 0 -44 0 -3 -77 -3 -78 -57 -3 -58 -3 0 81 0 80 -50 0
-50 0 2 -207z"/>
<path d="M3430 1720 l0 -210 35 0 c19 0 35 4 35 9 0 6 16 3 35 -5 68 -28 132
-9 156 48 20 46 17 155 -4 195 -26 48 -84 63 -151 37 -14 -5 -16 4 -16 65 l0
71 -45 0 -45 0 0 -210z m180 -28 c8 -24 9 -49 3 -72 -9 -33 -12 -35 -49 -35
l-39 0 -3 59 c-4 77 0 86 42 86 32 0 36 -3 46 -38z"/>
<path d="M2400 1900 c-22 -40 17 -89 60 -75 24 7 37 51 23 74 -16 26 -69 26
-83 1z"/>
<path d="M2560 1835 c0 -38 -3 -45 -20 -45 -16 0 -20 -7 -20 -35 0 -28 4 -35
20 -35 18 0 20 -7 21 -62 0 -96 16 -130 65 -147 23 -8 52 -11 67 -7 23 5 27
12 27 41 0 32 -3 35 -29 35 -35 0 -41 13 -41 86 l0 54 35 0 c34 0 35 1 35 40
0 39 -1 40 -35 40 -34 0 -35 1 -35 40 l0 40 -45 0 -45 0 0 -45z"/>
<path d="M2400 1655 l0 -145 45 0 45 0 0 145 0 145 -45 0 -45 0 0 -145z"/>
<path d="M3120 1675 c0 -110 2 -127 19 -144 29 -29 88 -37 138 -19 24 9 43 12
43 7 0 -5 14 -9 30 -9 l30 0 0 146 0 145 -42 -3 -43 -3 -5 -105 -5 -105 -35 0
-35 0 -3 108 -3 107 -44 0 -45 0 0 -125z"/>
<path d="M4193 1793 c-13 -2 -23 -12 -23 -22 0 -15 8 -17 60 -13 67 5 90 -6
90 -43 0 -24 -29 -35 -90 -35 -34 0 -76 -32 -84 -65 -4 -14 0 -40 8 -59 20
-48 78 -66 136 -43 23 9 42 11 46 6 17 -28 24 2 24 105 0 106 -2 117 -23 142
-18 21 -33 27 -73 29 -27 2 -59 1 -71 -2z m127 -183 c0 -56 -15 -70 -74 -70
-27 0 -40 6 -53 26 -15 24 -15 29 -2 53 14 25 44 36 107 40 20 1 22 -3 22 -49z"/>
<path d="M4475 1791 c-40 -18 -59 -50 -59 -101 0 -38 6 -55 23 -74 16 -17 19
-26 11 -31 -7 -4 -10 -20 -8 -36 3 -21 -2 -35 -19 -51 -24 -23 -30 -66 -13
-98 19 -36 107 -50 183 -29 54 15 77 41 77 89 0 51 -24 68 -111 76 -35 4 -70
11 -77 17 -21 16 4 35 49 35 22 1 51 8 64 16 30 20 46 74 35 121 -7 32 -6 36
16 41 37 9 29 24 -13 24 -21 0 -60 2 -88 5 -27 3 -59 1 -70 -4z m107 -48 c24
-22 24 -77 -2 -103 -24 -24 -77 -26 -108 -4 -27 19 -30 78 -5 106 21 23 89 24
115 1z m2 -243 c44 -10 58 -26 49 -55 -13 -42 -85 -63 -153 -45 -43 12 -58 37
-40 69 21 40 65 50 144 31z"/>
<path d="M4765 1791 c-46 -20 -60 -49 -63 -135 -4 -77 -2 -84 22 -114 20 -23
38 -32 69 -36 53 -8 111 5 115 25 2 12 -8 14 -60 11 -73 -4 -93 7 -107 56
l-10 32 96 0 95 0 -4 60 c-5 75 -27 101 -89 106 -24 2 -53 0 -64 -5z m99 -47
c9 -8 16 -31 16 -50 l0 -35 -72 3 c-71 3 -73 4 -70 28 7 48 29 70 72 70 22 0
45 -7 54 -16z"/>
<path d="M5022 1785 c-85 -37 -51 -145 45 -145 35 0 73 -25 73 -49 0 -37 -35
-54 -100 -49 -51 4 -60 2 -60 -13 0 -23 75 -34 129 -19 101 27 84 160 -21 160
-44 0 -68 12 -74 36 -11 42 12 56 83 52 53 -2 63 0 63 13 0 29 -83 38 -138 14z"/>
</g>
</svg>
